# xmcd
#
# Track frame offsets: 
#        150
#        20399
#        39149
#        53194
#        69641
#        90296
#        110340
#        133074
#        162060
#        185298
#        203120
#
# Disc length: 3011 seconds
#
# Revision: 3
# Processed by: cddbd v1.5.2PL0 Copyright (c) Steve Scherf et al.
# Submitted via: ExactAudioCopy v0.95b4
#
DISCID=840bc10b
DTITLE=John Lee Hooker - Quadromania: Guitar Lovin' Man [CD4]
DYEAR=1900
DGENRE=Blues
TTITLE0=Baby Baby
TTITLE1=I Feel Good
TTITLE2=Going Home
TTITLE3=We Are Cooking
TTITLE4=Looking Back over My Day
TTITLE5=Dazie Mae
TTITLE6=Stand Back
TTITLE7=Call it the Night
TTITLE8=Roll and Rumble
TTITLE9=Bottle of Wine
TTITLE10=Baby Don't Do Me Wrong
EXTD=
EXTT0=
EXTT1=
EXTT2=
EXTT3=
EXTT4=
EXTT5=
EXTT6=
EXTT7=
EXTT8=
EXTT9=
EXTT10=
PLAYORDER=
